<svg xmlns="http://www.w3.org/2000/svg" width="512" height="512" viewBox="0 0 512 512">
  <defs>
    <linearGradient id="bg" x1="0%" x2="100%" y1="0%" y2="100%">
      <stop offset="0%" stop-color="#1d4ed8"/>
      <stop offset="100%" stop-color="#0f172a"/>
    </linearGradient>
    <linearGradient id="accent" x1="0%" x2="100%" y1="0%" y2="100%">
      <stop offset="0%" stop-color="#f59e0b"/>
      <stop offset="100%" stop-color="#fb7185"/>
    </linearGradient>
  </defs>
  <rect width="512" height="512" rx="112" fill="url(#bg)"/>
  <path d="M110 150h292a20 20 0 0 1 20 20v172a20 20 0 0 1-20 20H110a20 20 0 0 1-20-20V170a20 20 0 0 1 20-20Z" fill="#e2e8f0" opacity="0.96"/>
  <path d="M90 198h332" stroke="#94a3b8" stroke-width="18" stroke-linecap="round"/>
  <path d="M138 254h90v68h-90zM254 230h116M254 276h78M254 322h116" fill="none" stroke="#334155" stroke-linecap="round" stroke-linejoin="round" stroke-width="20"/>
  <circle cx="156" cy="174" r="14" fill="#f97316"/>
  <circle cx="200" cy="174" r="14" fill="#38bdf8"/>
  <path d="M330 108c38 0 68 30 68 68 0 74-68 126-68 126s-68-52-68-126c0-38 30-68 68-68Z" fill="url(#accent)"/>
  <path d="M330 148c17 0 30 13 30 30s-13 30-30 30-30-13-30-30 13-30 30-30Z" fill="#fff7ed"/>
</svg>
